{"title":"Sweet Sixteen (2002) HDRip 540p x264-pong","uid":15473774,"size":709633284,"categoryP":"video","categoryS":"movies","magnet":"?xt=urn:btih:895d61baad57bf3903f43c2fd3b9a6bd03509e90&amp;dn=Sweet+Sixteen+%282002%29+HDRip+540p+x264-pong&amp;tr=udp%3A%2F%2Ftracker.leechers-paradise.org%3A6969&amp;tr=udp%3A%2F%2Fzer0day.ch%3A1337&amp;tr=udp%3A%2F%2Fopen.demonii.com%3A1337&amp;tr=udp%3A%2F%2Ftracker.coppersurfer.tk%3A6969&amp;tr=udp%3A%2F%2Fexodus.desync.com%3A6969","seeders":1,"leechers":1,"uploader":"Pongydog","files":1,"time":1470165890,"description":"http://www.imdb.com/title/tt0313670/\r\n\r\n\r\n\r\nDetermined to have a normal family life once his mother gets out of prison, a Scottish teenager from a tough background sets out to raise the money for a home. \r\n\r\nDirector: Ken Loach  \r\n\r\nWriter: Paul Laverty (screenplay)  \r\n\r\nStars: Martin Compston,  Michelle Coulter,  Annmarie Fulton  |\r\n\r\nGeneral\r\nComplete name                            : C:Usersuser1VideosSweet Sixteen (2002) HDRip 540p  x264-pong.mp4\r\nFormat                                   : MPEG-4\r\nFormat profile                           : Base Media\r\nCodec ID                                 : isom (isom/iso2/avc1/mp41)\r\nFile size                                : 677 MiB\r\nDuration                                 : 1h 41mn\r\nOverall bit rate                         : 929 Kbps\r\nEncoded date                             : UTC 2016-08-01 02:12:54\r\nTagged date                              : UTC 2016-08-01 02:12:54\r\nWriting application                      : Lavf57.36.100\r\n\r\nVideo\r\nID                                       : 1\r\nFormat                                   : AVC\r\nFormat/Info                              : Advanced Video Codec\r\nFormat profile                           :   \r\nFormat settings, CABAC                   : Yes\r\nFormat settings, ReFrames                : 8 frames\r\nCodec ID                                 : avc1\r\nCodec ID/Info                            : Advanced Video Coding\r\nDuration                                 : 1h 41mn\r\nBit rate                                 : 800 Kbps\r\nWidth                                    : 960 pixels\r\nHeight                                   : 540 pixels\r\nDisplay aspect ratio                     : 16:9\r\nFrame rate mode                          : Constant\r\nFrame rate                               : 25.000 fps\r\nColor space                              : YUV\r\nChroma subsampling                       : 4:2:0\r\nBit depth                                : 8 bits\r\nScan type                                : Progressive\r\nBits/(Pixel*Frame)                       : 0.062\r\nStream size                              : 580 MiB (86%)\r\nWriting library                          : x264 core 148 r2643\r\nEncoding settings                        : cabac=1 / ref=8 / deblock=1:-1:-1 / analyse=0x1:0x131 / me=umh / subme=9 / psy=1 / psy_rd=1.00:0.15 / mixed_ref=0 / me_range=16 / chroma_me=1 / trellis=2 / 8x8dct=0 / cqm=0 / deadzone=21,11 / fast_pskip=1 / chroma_qp_offset=-3 / threads=3 / lookahead_threads=1 / sliced_threads=0 / nr=0 / decimate=1 / interlaced=0 / bluray_compat=0 / constrained_intra=0 / bframes=3 / b_pyramid=0 / b_adapt=2 / b_bias=0 / direct=3 / weightb=1 / open_gop=0 / weightp=2 / keyint=250 / keyint_min=25 / scenecut=40 / intra_refresh=0 / rc_lookahead=60 / rc=abr / mbtree=1 / bitrate=800 / ratetol=1.0 / qcomp=0.60 / qpmin=10 / qpmax=69 / qpstep=4 / vbv_maxrate=2400 / vbv_bufsize=24000 / nal_hrd=none / filler=0 / ip_ratio=1.40 / aq=3:1.00\r\nEncoded date                             : UTC 2016-08-01 02:12:54\r\nTagged date                              : UTC 2016-08-01 02:12:54\r\n\r\nAudio\r\nID                                       : 2\r\nFormat                                   : AAC\r\nFormat/Info                              : Advanced Audio Codec\r\nFormat profile                           : LC\r\nCodec ID                                 : 40\r\nDuration                                 : 1h 41mn\r\nBit rate mode                            : Constant\r\nBit rate                                 : 128 Kbps\r\nChannel(s)                               : 2 channels\r\nChannel positions                        : Front: L R\r\nSampling rate                            : 48.0 KHz\r\nFrame rate                               : 46.875 fps (1024 spf)\r\nCompression mode                         : Lossy\r\nStream size                              : 93.2 MiB (14%)\r\nDefault                                  : Yes\r\nAlternate group                          : 1\r\nEncoded date                             : UTC 2016-08-01 02:12:54\r\nTagged date                              : UTC 2016-08-01 02:12:54","torrent":{"xt":"urn:btih:895d61baad57bf3903f43c2fd3b9a6bd03509e90","amp;dn":"Sweet+Sixteen+%282002%29+HDRip+540p+x264-pong","amp;tr":["udp%3A%2F%2Ftracker.leechers-paradise.org%3A6969","udp%3A%2F%2Fzer0day.ch%3A1337","udp%3A%2F%2Fopen.demonii.com%3A1337","udp%3A%2F%2Ftracker.coppersurfer.tk%3A6969","udp%3A%2F%2Fexodus.desync.com%3A6969"],"infoHash":"895d61baad57bf3903f43c2fd3b9a6bd03509e90","infoHashBuffer":{"type":"Buffer","data":[137,93,97,186,173,87,191,57,3,244,60,47,211,185,166,189,3,80,158,144]},"announce":[],"urlList":[]}}